HIERARCHY
ROOT Hips
{
	OFFSET 0.000000 0.000000 0.000000
	CHANNELS 6 Xposition Yposition Zposition Zrotation Yrotation Xrotation
	JOINT Spine
	{
		OFFSET 0.000000 6.215748 0.000003
		CHANNELS 3 Zrotation Yrotation Xrotation
		JOINT Spine1
		{
			OFFSET 0.000000 16.962236 0.000014
			CHANNELS 3 Zrotation Yrotation Xrotation
			JOINT Neck
			{
				OFFSET 0.000000 18.478273 0.000014
				CHANNELS 3 Zrotation Yrotation Xrotation
				JOINT Head
				{
					OFFSET 0.000000 11.749283 1.516043
					CHANNELS 3 Zrotation Yrotation Xrotation
					End Site
					{
						OFFSET 0.000000 15.160354 0.000012
					}
				}
			}
			JOINT LeftShoulder
			{
				OFFSET 3.052904 14.920256 -0.400728
				CHANNELS 3 Zrotation Yrotation Xrotation
				JOINT LeftArm
				{
					OFFSET 10.893600 0.000000 0.000000
					CHANNELS 3 Zrotation Yrotation Xrotation
					JOINT LeftForeArm
					{
						OFFSET 21.360620 0.000000 0.000000
						CHANNELS 3 Zrotation Yrotation Xrotation
						JOINT LeftHand
						{
							OFFSET 19.851934 0.000000 0.000000
							CHANNELS 3 Zrotation Yrotation Xrotation
							End Site
							{
								OFFSET 11.370277 0.000000 0.000000
							}
						}
					}
				}
			}
			JOINT RightShoulder
			{
				OFFSET -3.010783 14.920256 -0.400728
				CHANNELS 3 Zrotation Yrotation Xrotation
				JOINT RightArm
				{
					OFFSET -10.893600 0.000000 0.000000
					CHANNELS 3 Zrotation Yrotation Xrotation
					JOINT RightForeArm
					{
						OFFSET -21.360628 0.000000 0.000000
						CHANNELS 3 Zrotation Yrotation Xrotation
						JOINT RightHand
						{
							OFFSET -19.851934 0.000000 0.000000
							CHANNELS 3 Zrotation Yrotation Xrotation
							End Site
							{
								OFFSET -11.370277 0.000000 0.000000
							}
						}
					}
				}
			}
		}
	}
	JOINT LeftUpLeg
	{
		OFFSET 7.580183 0.000000 0.000000
		CHANNELS 3 Zrotation Yrotation Xrotation
		JOINT LeftLeg
		{
			OFFSET 0.000000 -31.879606 -0.000021
			CHANNELS 3 Zrotation Yrotation Xrotation
			JOINT LeftFoot
			{
				OFFSET 0.000000 -33.422195 -0.000022
				CHANNELS 3 Zrotation Yrotation Xrotation
				JOINT LeftToeBase
				{
					OFFSET 0.000000 -4.927119 11.370273
					CHANNELS 3 Zrotation Yrotation Xrotation
					End Site
					{
						OFFSET 0.000000 0.000000 3.032075
					}
				}
			}
		}
	}
	JOINT RightUpLeg
	{
		OFFSET -7.580183 0.000000 0.000000
		CHANNELS 3 Zrotation Yrotation Xrotation
		JOINT RightLeg
		{
			OFFSET 0.000000 -31.879606 -0.000021
			CHANNELS 3 Zrotation Yrotation Xrotation
			JOINT RightFoot
			{
				OFFSET 0.000000 -33.422195 -0.000022
				CHANNELS 3 Zrotation Yrotation Xrotation
				JOINT RightToeBase
				{
					OFFSET 0.000000 -4.927119 11.370273
					CHANNELS 3 Zrotation Yrotation Xrotation
					End Site
					{
						OFFSET 0.000000 0.000000 3.032075
					}
				}
			}
		}
	}
}
MOTION
Frames: 12
Frame Time: 0.041667
5.285818 66.777863 -0.615444 0.805626 1.121939 3.682870 -1.335303 -2.288409 -18.253411 4.661809 -1.457220 18.321103 6.534543 4.168138 9.879161 -5.068215 6.627949 5.672357 20.666272 3.094168 -8.225650 -14.431831 -10.885343 0.398141 6.457374 -8.467905 -9.503644 -7.101924 -1.842757 -8.911355 -17.339417 -10.520524 -2.288149 9.395616 20.223958 30.342811 -112.275538 53.836374 -68.472728 -34.290903 3.806781 4.580106 -2.250414 -2.114351 -6.903355 1.343542 1.569537 13.562137 0.593276 21.656278 -5.955489 -0.000001 0.000004 0.000001 1.138114 0.892285 -5.828024 1.675871 -1.139815 12.774061 3.598825 -20.872046 -13.050449 0.000001 0.000004 -0.000004 
5.308605 66.781837 -0.627996 0.830384 1.123616 3.756902 -1.337656 -2.285899 -18.224031 4.643956 -1.449869 18.236687 6.522723 4.191041 9.841464 -5.068486 6.646178 5.659311 20.643318 3.113658 -8.202436 -14.437645 -10.920472 0.277944 6.428347 -8.473017 -9.448483 -7.111109 -1.837719 -8.858207 -17.364025 -10.486295 -2.280070 9.432822 20.147523 30.397846 -112.383345 53.746246 -68.535757 -34.294452 3.732364 4.544567 -2.270314 -2.125880 -7.488146 1.226129 1.284411 14.545361 0.539379 21.961910 -6.288040 -0.000002 0.000004 0.000002 1.043534 0.901427 -5.921393 1.770671 -1.139382 12.797181 3.582240 -20.888983 -13.057659 -0.000001 0.000006 0.000002 
5.334844 66.787041 -0.643965 0.855926 1.141298 3.832006 -1.338976 -2.293187 -18.171645 4.625989 -1.445078 18.130025 6.491279 4.214170 9.780266 -5.044117 6.656425 5.674808 20.628638 3.123839 -8.181904 -14.461749 -10.920985 0.263723 6.431653 -8.496698 -9.464268 -7.096892 -1.831938 -8.872998 -17.375366 -10.492006 -2.285950 9.448191 20.119024 30.437785 -112.469440 53.684464 -68.567511 -34.258614 3.698325 4.540629 -2.298422 -2.106899 -8.134329 1.130313 1.050797 15.653764 0.662886 22.122479 -6.700500 0.000000 -0.000002 0.000002 0.943916 0.911509 -6.018724 1.864389 -1.183475 12.813160 3.583877 -20.893865 -13.053600 -0.000001 0.000005 -0.000002 
5.366342 66.792557 -0.661411 0.882798 1.188850 3.903924 -1.313716 -2.314094 -18.112845 4.565867 -1.439462 18.023466 6.473697 4.232459 9.727248 -5.033596 6.665559 5.653402 20.631384 3.141732 -8.138932 -14.486179 -10.946077 0.225383 6.435144 -8.499251 -9.477644 -7.119863 -1.791611 -8.888096 -17.373607 -10.497359 -2.259136 9.437775 20.104051 30.315979 -112.503816 53.614168 -69.243187 -32.821453 6.706877 2.979372 -2.317802 -2.192772 -8.839035 0.961733 0.694491 16.893524 0.543865 22.527135 -7.355244 -0.000000 0.000003 0.000001 0.836140 0.920198 -6.114547 1.877989 -1.605628 12.822037 3.549018 -20.543314 -13.005677 0.000000 0.000001 0.000001 
5.399650 66.798210 -0.678505 0.897199 1.248172 3.979013 -1.286923 -2.324035 -18.063243 4.521047 -1.433609 17.934566 6.460325 4.226347 9.656997 -5.036076 6.652484 5.635666 20.622105 3.117182 -8.100442 -14.496037 -10.953417 0.181689 6.458703 -8.498470 -9.471920 -7.150449 -1.830539 -8.877748 -17.371514 -10.489536 -2.297109 9.426311 20.036819 30.278847 -112.742354 53.761642 -68.823848 -34.353758 3.583160 4.693456 -2.362575 -2.203340 -9.564846 0.847701 0.431397 18.227985 0.477963 22.720667 -8.093477 -0.000001 -0.000002 -0.000000 0.738796 0.930568 -6.216786 1.976741 -1.659358 12.856247 3.577320 -20.571037 -13.012068 -0.000000 0.000002 -0.000002 
5.441663 66.805580 -0.698778 0.900165 1.335895 4.050782 -1.236310 -2.339835 -17.992617 4.469313 -1.429281 17.827811 6.441614 4.219332 9.577879 -5.030911 6.635463 5.617096 20.615509 3.114555 -8.056855 -14.508973 -11.016384 0.055950 6.448431 -8.465503 -9.467948 -7.170492 -1.808369 -8.877469 -17.392266 -10.502469 -2.246511 9.421116 19.953194 30.276787 -112.830067 53.649094 -68.769206 -34.367371 3.561024 4.711576 -2.338181 -2.467882 -10.293842 0.666041 0.399411 19.447811 0.497463 22.880796 -8.672564 -0.000000 0.000000 0.000002 0.653038 0.939481 -6.306897 2.099447 -1.560830 12.882205 3.586534 -20.772581 -13.007985 -0.000001 0.000001 -0.000001 
5.485300 66.812744 -0.712609 0.902702 1.444407 4.128226 -1.199141 -2.376784 -17.960128 4.453654 -1.438676 17.763512 6.401469 4.216639 9.499443 -5.037594 6.618438 5.565483 20.595295 3.095840 -8.016611 -14.539709 -11.043439 0.002795 6.478864 -8.454890 -9.489395 -7.194017 -1.853330 -8.894079 -17.416096 -10.515028 -2.236825 9.381910 19.865540 30.223676 -112.899994 53.481638 -69.519639 -32.841585 6.672236 2.967047 -2.298088 -2.722418 -10.973817 0.383082 0.280783 20.533406 0.867370 23.135186 -9.071273 0.000000 0.000004 -0.000002 0.586617 0.948784 -6.393108 2.083212 -1.922082 12.876357 3.597896 -20.540824 -12.961343 -0.000000 0.000003 -0.000002 
5.650922 66.937508 -0.480043 0.077718 2.674143 3.017289 0.375832 -3.069772 -17.309690 3.606394 -1.634879 18.214800 6.396061 4.200099 9.391975 -5.022008 6.590315 5.526220 20.603935 3.051217 -8.023363 -14.554797 -11.018021 0.049390 6.505417 -8.465450 -9.542054 -7.215533 -1.828323 -8.945380 -17.380507 -10.514987 -2.265738 9.310658 19.758668 30.106893 -113.053045 53.517684 -69.678182 -32.842152 6.692065 3.006157 -1.639193 -4.182305 -10.235551 0.422657 0.583716 21.362557 1.078910 23.120694 -9.444021 -0.000000 0.000001 -0.000000 1.151744 0.676636 -4.591894 2.455718 -2.472876 12.024321 3.707304 -21.022465 -12.078841 0.000000 0.000002 0.000007 
5.698802 66.933983 -0.504515 0.137584 2.712966 3.120204 0.330595 -3.034181 -17.257941 3.600179 -1.616522 18.122215 6.397435 4.162573 9.307485 -5.057416 6.549971 5.445592 20.619313 3.009605 -8.021670 -14.605287 -11.033611 0.051288 6.547494 -8.446514 -9.579967 -7.225474 -1.820335 -8.981590 -17.402373 -10.549803 -2.155700 9.279318 19.671052 30.011346 -113.158244 53.401475 -69.712244 -32.818393 6.612018 2.967891 -1.498856 -4.638520 -10.889434 -0.185846 0.699376 22.318787 0.984691 23.638851 -10.006741 0.000002 -0.000002 0.000001 1.040975 0.699748 -4.774658 2.471761 -2.491986 12.153946 3.748245 -21.064088 -12.158674 0.000002 0.000003 -0.000000 
5.750585 66.936127 -0.515316 0.186971 2.752147 3.178515 0.289937 -3.007001 -17.193840 3.596232 -1.602278 18.054664 6.410663 4.126773 9.243305 -5.098545 6.515526 5.358628 20.648997 2.974116 -7.991572 -14.656165 -11.051818 -0.085107 6.523504 -8.444094 -9.557286 -7.162434 -1.844960 -8.960289 -17.397095 -10.534342 -2.139893 9.230227 19.545845 29.786906 -113.331526 53.500356 -69.927169 -32.819612 6.664087 3.038411 -1.506910 -4.859578 -11.382418 -0.514894 0.766471 22.992894 0.462628 23.795407 -10.640003 -0.000000 -0.000003 -0.000001 0.930162 0.712516 -4.892306 2.592554 -2.135522 12.280478 3.813649 -21.488960 -12.262414 0.000000 0.000003 -0.000004 
5.805692 66.931328 -0.531593 0.264319 2.729480 3.274372 0.205657 -2.943734 -17.164200 3.614419 -1.577890 18.000989 6.418555 4.107909 9.161381 -5.132493 6.495031 5.271763 20.635800 2.935880 -7.984526 -14.654485 -11.042260 -0.082773 6.522657 -8.455008 -9.594828 -7.147562 -1.840450 -8.997776 -17.393808 -10.558474 -2.109882 9.185352 19.503088 29.579579 -113.437093 53.567336 -70.079332 -32.845956 6.710400 3.062762 -1.551929 -5.012217 -11.802519 -0.845261 0.799244 23.481909 0.067746 23.501247 -11.289071 -0.000001 0.000005 0.000006 0.794150 0.733533 -5.066109 2.604382 -2.188311 12.402671 3.854324 -21.460714 -12.343689 -0.000000 0.000003 0.000001 
5.866753 66.928207 -0.531093 0.370305 2.674676 3.324886 0.075650 -2.852940 -17.119717 3.656981 -1.546642 17.975022 6.422972 4.080361 9.107332 -5.165455 6.463913 5.149017 20.637987 2.899063 -7.983736 -14.697167 -11.067965 -0.157627 6.524921 -8.431983 -9.551996 -7.144866 -1.821251 -8.957352 -17.391808 -10.552552 -2.098959 9.115287 19.414290 29.292308 -113.585834 53.725404 -70.334863 -32.762143 6.762462 3.143807 -1.655725 -5.052592 -12.136334 -1.101109 0.886804 23.709286 0.045779 22.757707 -11.570051 0.000001 0.000003 0.000002 0.622144 0.743496 -5.188861 2.646193 -2.101748 12.547951 3.875842 -21.519254 -12.449521 0.000000 0.000006 0.000000 
